<svg xmlns="http://www.w3.org/2000/svg" xmlns:svg="http://www.w3.org/2000/svg" id="svg2" width="64" height="64" version="1.1"><metadata id="metadata6"/><g id="layer1" transform="matrix(4,0,0,4,0.003165,-4144.8266)"><path id="path3807" d="m 7.4679632,4.2456918 a 3.2699957,3.2699957 0 1 1 -6.53999136,0 3.2699957,3.2699957 0 1 1 6.53999136,0 z" transform="matrix(-0.68609744,0,0,0.68609744,14.00029,1037.9305)" style="fill:none;stroke:#000;stroke-width:4.37255669;stroke-linecap:butt;stroke-linejoin:round;stroke-miterlimit:4;stroke-opacity:1;stroke-dasharray:none;stroke-dashoffset:0"/><path id="path3809" d="m 8.2176707,1043.1885 c -5.8306739,3.1677 -2.3576257,7.3714 -2.3576257,7.3714 1.0551556,-2.1255 3.5999494,-6.2732 3.5999494,-6.2732 0,0 -0.9210244,-0.7529 -1.2423237,-1.0982 z" style="fill:#fff;fill-opacity:1;stroke:#000;stroke-width:1.29999995;stroke-miterlimit:4;stroke-opacity:1;stroke-dasharray:none"/><path id="path3805" d="m 7.4679632,4.2456918 a 3.2699957,3.2699957 0 1 1 -6.53999136,0 3.2699957,3.2699957 0 1 1 6.53999136,0 z" transform="matrix(0.68609744,0,0,0.68609744,1.9976001,1037.9305)" style="fill:none;stroke:#000;stroke-width:4.37255669;stroke-linecap:butt;stroke-linejoin:round;stroke-miterlimit:4;stroke-opacity:1;stroke-dasharray:none;stroke-dashoffset:0"/><path id="path3811" d="m 8.2176707,1043.1885 c -5.8306739,3.1677 -2.3576257,7.3714 -2.3576257,7.3714 1.0551556,-2.1255 3.5999494,-6.2732 3.5999494,-6.2732 0,0 -0.9210244,-0.7529 -1.2423237,-1.0982 z" style="fill:#e6e6e6;fill-opacity:1;stroke:none"/><path id="path3024" d="m 7.7802226,1043.1885 c 5.8306744,3.1677 2.3576254,7.3714 2.3576254,7.3714 -1.0551554,-2.1255 -3.5999493,-6.2732 -3.5999493,-6.2732 0,0 0.9210245,-0.7529 1.2423239,-1.0982 z" style="fill:#fff;fill-opacity:1;stroke:#000;stroke-width:1.29999995;stroke-miterlimit:4;stroke-opacity:1;stroke-dasharray:none"/><path id="path3813" d="m 7.4679632,4.2456918 a 3.2699957,3.2699957 0 1 1 -6.53999136,0 3.2699957,3.2699957 0 1 1 6.53999136,0 z" transform="matrix(-0.68609744,0,0,0.68609744,14.00029,1037.9305)" style="fill:none;stroke:#7fca9b;stroke-width:2.67028236;stroke-linecap:butt;stroke-linejoin:round;stroke-miterlimit:4;stroke-opacity:1;stroke-dasharray:none;stroke-dashoffset:0"/><path id="path3846" d="m 7.7802226,1043.1885 c 5.8306744,3.1677 2.3576254,7.3714 2.3576254,7.3714 -1.0551554,-2.1255 -3.5999493,-6.2732 -3.5999493,-6.2732 0,0 0.9210245,-0.7529 1.2423239,-1.0982 z" style="fill:#e6e6e6;fill-opacity:1;stroke:none"/><path id="path3025" d="m 7.4679632,4.2456918 a 3.2699957,3.2699957 0 1 1 -6.53999136,0 3.2699957,3.2699957 0 1 1 6.53999136,0 z" transform="matrix(0.68609744,0,0,0.68609744,1.9976001,1037.9305)" style="fill:none;stroke:#7fca9b;stroke-width:2.67028236;stroke-linecap:butt;stroke-linejoin:round;stroke-miterlimit:4;stroke-opacity:1;stroke-dasharray:none;stroke-dashoffset:0"/></g></svg>