<svg xmlns="http://www.w3.org/2000/svg" xmlns:svg="http://www.w3.org/2000/svg" id="svg2" width="64" height="64" version="1.1" xml:space="preserve"><metadata id="metadata8"/><g id="g10" transform="matrix(1.25,0,0,-1.25,-5,79)"><path id="path3820" d="m 23.2,50.4 c -9.6,0 -9.6,-9.6 -9.6,-9.6 l 0,-12.8 c 0,-3.2 0,-3.2 -3.2,-3.2 l -5.6,0 C 4,24.8 4,24 4,24 l 0,-1.6 c 0,-0.8 0.8,-0.8 0.8,-0.8 l 8.8,0 c 0,0 3.2,0 3.2,3.2 l 0,16 c 0,0 0,6.4 6.4,6.4 0,0 0,0 12.8,0 0,0 6.4,0 6.4,-6.4 l 0,-16 c 0,0 0,-3.2 3.2,-3.2 l 8.8,0 c 0.8,0 0.8,0.8 0.8,0.8 l 0,1.6 c 0,0.8 -0.8,0.8 -0.8,0.8 l -5.6,0 c -3.2,0 -3.2,0 -3.2,3.2 0,3.2 0,12.8 0,12.8 0,9.6 -9.6,9.6 -9.6,9.6 z" style="fill:#484848;fill-opacity:1;stroke:none"/><path id="path3843" d="m 20.8,37.6 4.8,0 c 0,0 0.8,0 0.8,0.8 0,0.8 0,4.8 0,4.8 0,0 0,0.8 0.8,0.8 0.8,0 4.8,0 4.8,0 0,0 0.8,0 0.8,-0.8 0,-0.8 0,-4.8 0,-4.8 0,0 0,-0.8 0.8,-0.8 0.8,0 4.8,0 4.8,0 0,0 0.8,0 0.8,-0.8 0,-0.8 0,-4.8 0,-4.8 0,0 0,-0.8 -0.8,-0.8 -0.8,0 -4.8,0 -4.8,0 0,0 -0.8,0 -0.8,-0.8 0,-0.8 0,-4.8 0,-4.8 0,0 0,-0.8 -0.8,-0.8 -0.8,0 -4.8,0 -4.8,0 0,0 -0.8,0 -0.8,0.8 0,0.8 0,4.8 0,4.8 0,0 0,0.8 -0.8,0.8 -0.8,0 -4.8,0 -4.8,0 0,0 -0.8,0 -0.8,0.8 0,0.8 0,4.8 0,4.8 0,0 0,0.8 0.8,0.8 z" style="fill:#484848;fill-opacity:1;stroke:none"/></g></svg>