<svg xmlns="http://www.w3.org/2000/svg" xmlns:svg="http://www.w3.org/2000/svg" id="svg2" width="64" height="64" version="1.1" xml:space="preserve"><metadata id="metadata8"/><g id="g10" transform="matrix(1.25,0,0,-1.25,-5,79)"><path id="path3820" d="m 23.2,50.4 c -9.6,0 -9.6,-9.6 -9.6,-9.6 l 0,-12.8 c 0,-3.2 0,-3.2 -3.2,-3.2 l -5.6,0 C 4,24.8 4,24 4,24 l 0,-1.6 c 0,-0.8 0.8,-0.8 0.8,-0.8 l 8.8,0 c 0,0 3.2,0 3.2,3.2 l 0,16 c 0,0 0,6.4 6.4,6.4 0,0 0,0 12.8,0 0,0 6.4,0 6.4,-6.4 l 0,-16 c 0,0 0,-3.2 3.2,-3.2 l 8.8,0 c 0.8,0 0.8,0.8 0.8,0.8 l 0,1.6 c 0,0.8 -0.8,0.8 -0.8,0.8 l -5.6,0 c -3.2,0 -3.2,0 -3.2,3.2 0,3.2 0,12.8 0,12.8 0,9.6 -9.6,9.6 -9.6,9.6 z" style="fill:#484848;fill-opacity:1;stroke:none"/><path id="path3843" d="m 23.506473,43.112411 5.484175,-5.484175 c 0,0 0.609352,-0.609352 1.218704,0 0.609354,0.609352 5.484175,5.484175 5.484175,5.484175 0,0 0.609353,0.609352 1.218706,0 0.609353,-0.609352 2.437411,-2.437411 2.437411,-2.437411 0,0 0.609352,-0.609353 0,-1.218706 -0.609353,-0.609352 -5.484175,-5.484175 -5.484175,-5.484175 0,0 -0.609352,-0.609352 0,-1.218704 0.609352,-0.609354 5.484175,-5.484175 5.484175,-5.484175 0,0 0.609352,-0.609353 0,-1.218706 -0.609352,-0.609353 -2.437411,-2.437411 -2.437411,-2.437411 0,0 -0.609353,-0.609352 -1.218706,0 -0.609352,0.609353 -5.484175,5.484175 -5.484175,5.484175 0,0 -0.609352,0.609352 -1.218704,0 -0.609354,-0.609352 -5.484175,-5.484175 -5.484175,-5.484175 0,0 -0.609353,-0.609352 -1.218706,0 -0.609353,0.609352 -2.437411,2.437411 -2.437411,2.437411 0,0 -0.609352,0.609353 0,1.218706 0.609353,0.609352 5.484175,5.484175 5.484175,5.484175 0,0 0.609352,0.609352 0,1.218704 -0.609352,0.609354 -5.484175,5.484175 -5.484175,5.484175 0,0 -0.609352,0.609353 0,1.218706 0.609352,0.609353 2.437411,2.437411 2.437411,2.437411 0,0 0.609353,0.609352 1.218706,0 z" style="fill:#484848;fill-opacity:1;stroke:none"/></g></svg>